<svg height="504pt" viewBox="0 0 504.1082 504" width="504pt" xmlns="http://www.w3.org/2000/svg"><path d="m494.933594 136.585938c.046875 22.476562-5.871094 44.5625-17.152344 64-11.25 19.445312-27.40625 35.597656-46.847656 46.847656-39.605469 22.867187-88.398438 22.867187-128 0-5.960938-3.46875-11.640625-7.40625-16.980469-11.773438l-16.300781-53.503906-25.171875-82.6875c2.789062-9.390625 6.683593-18.414062 11.605469-26.882812 11.25-19.441407 27.402343-35.59375 46.847656-46.847657 19.441406-11.277343 41.523437-17.195312 64-17.152343h1.28125c45.269531.457031 86.933594 24.792968 109.566406 64 4.761719 8.125 8.570312 16.773437 11.347656 25.773437 3.855469 12.375 5.8125 25.265625 5.804688 38.226563zm0 0" fill="#90bae1"/><path d="m489.128906 98.359375c-38.371094-1.425781-76.734375 3.210937-113.664062 13.738281v-54.273437c0-4.710938-3.820313-8.53125-8.53125-8.53125-4.714844 0-8.535156 3.820312-8.535156 8.53125v59.050781c-.011719.34375.015624.6875.085937 1.023438-35.078125 12.613281-65.875 34.890624-88.832031 64.257812l-25.171875-82.6875c2.789062-9.390625 6.683593-18.414062 11.605469-26.882812 11.25-19.441407 27.402343-35.59375 46.847656-46.847657 19.441406-11.277343 41.523437-17.195312 64-17.152343h1.28125c45.269531.457031 86.933594 24.792968 109.566406 64 4.761719 8.125 8.570312 16.773437 11.347656 25.773437zm0 0" fill="#b0d3f0"/><path d="m204.800781 503.519531h204.800781s0-79.886719-23.195312-131.410156c-1.550781-3.375-4.179688-6.140625-7.476562-7.851563-35.789063-19.257812-74.398438-32.734374-114.394532-39.9375l-59.734375 149.332032-59.734375-149.332032c-39.996094 7.191407-78.605468 20.660157-114.398437 39.902344-3.292969 1.714844-5.925781 4.476563-7.472657 7.851563-23.195312 51.558593-23.195312 131.445312-23.195312 131.445312zm0 0" fill="#2c2f38"/><path d="m375.464844 57.824219v54.273437c-5.886719 1.792969-11.601563 3.753906-16.980469 5.800782-.070313-.335938-.097656-.679688-.085937-1.023438v-59.050781c0-4.710938 3.820312-8.53125 8.535156-8.53125 4.710937 0 8.53125 3.820312 8.53125 8.53125zm0 0" fill="#a5a5a4"/><path d="m375.464844 112.097656v4.777344c-.085938 4.449219-3.574219 8.082031-8.015625 8.351562-4.441407.265626-8.34375-2.921874-8.964844-7.328124 5.378906-2.046876 11.09375-4.007813 16.980469-5.800782zm0 0" fill="#5e5f62"/><path d="m435.855469 145.121094h-49.226563c-4.714844 0-8.535156-3.820313-8.535156-8.535156 0-4.710938 3.820312-8.53125 8.535156-8.53125h49.226563c4.714843 0 8.535156 3.820312 8.535156 8.53125 0 4.714843-3.820313 8.535156-8.535156 8.535156zm0 0" fill="#5e5f62"/><path d="m366.933594 26.96875c-4.714844 0-8.535156-3.820312-8.535156-8.535156v-9.847656c0-4.710938 3.820312-8.5312505 8.535156-8.5312505 4.710937 0 8.53125 3.8203125 8.53125 8.5312505v9.847656c0 4.714844-3.820313 8.535156-8.53125 8.535156zm0 0" fill="#a5a5a4"/><path d="m366.933594 273.121094c-4.714844 0-8.535156-3.820313-8.535156-8.535156v-9.847657c0-4.710937 3.820312-8.53125 8.535156-8.53125 4.710937 0 8.53125 3.820313 8.53125 8.53125v9.847657c0 4.714843-3.820313 8.535156-8.53125 8.535156zm0 0" fill="#5e5f62"/><path d="m307.867188 42.796875c-3.054688.003906-5.875-1.625-7.398438-4.265625l-4.925781-8.535156c-1.546875-2.640625-1.5625-5.910156-.039063-8.5625 1.527344-2.65625 4.359375-4.292969 7.417969-4.285156 3.0625.007812 5.886719 1.652343 7.402344 4.316406l4.921875 8.53125c1.523437 2.640625 1.523437 5.890625.003906 8.53125-1.523438 2.640625-4.335938 4.265625-7.382812 4.269531zm0 0" fill="#a5a5a4"/><path d="m430.933594 255.96875c-3.050782.003906-5.871094-1.625-7.398438-4.265625l-4.925781-8.535156c-1.546875-2.640625-1.5625-5.910157-.035156-8.566407 1.523437-2.652343 4.355469-4.289062 7.417969-4.28125 3.0625.007813 5.886718 1.652344 7.398437 4.316407l4.925781 8.53125c1.523438 2.640625 1.523438 5.890625 0 8.53125-1.523437 2.640625-4.335937 4.265625-7.382812 4.269531zm0 0" fill="#5e5f62"/><path d="m264.601562 86.042969c-1.5.003906-2.96875-.390625-4.265624-1.140625l-8.535157-4.925782c-4.046875-2.371093-5.417969-7.566406-3.074219-11.628906 2.347657-4.0625 7.53125-5.46875 11.609376-3.148437l8.53125 4.921875c3.34375 1.929687 4.976562 5.867187 3.976562 9.597656s-4.378906 6.324219-8.242188 6.324219zm0 0" fill="#a5a5a4"/><path d="m477.773438 209.121094c-1.5.003906-2.972657-.390625-4.265626-1.144532l-8.535156-4.921874c-2.660156-1.515626-4.308594-4.339844-4.316406-7.402344-.003906-3.058594 1.628906-5.890625 4.285156-7.417969 2.652344-1.523437 5.921875-1.507813 8.566406.039063l8.53125 4.925781c3.34375 1.929687 4.976563 5.867187 3.976563 9.597656s-4.378906 6.324219-8.242187 6.324219zm0 0" fill="#5e5f62"/><path d="m494.933594 145.121094h-9.847656c-4.714844 0-8.535157-3.820313-8.535157-8.535156 0-4.710938 3.820313-8.53125 8.535157-8.53125h9.847656c4.710937 0 8.53125 3.820312 8.53125 8.53125 0 4.714843-3.820313 8.535156-8.53125 8.535156zm0 0" fill="#5e5f62"/><path d="m469.265625 86.042969c-3.863281 0-7.242187-2.59375-8.242187-6.324219s.628906-7.667969 3.976562-9.597656l8.53125-4.921875c4.078125-2.320313 9.261719-.914063 11.609375 3.148437 2.34375 4.0625.972656 9.257813-3.074219 11.628906l-8.535156 4.925782c-1.296875.75-2.769531 1.144531-4.265625 1.140625zm0 0" fill="#a5a5a4"/><path d="m426 42.796875c-3.046875-.003906-5.859375-1.628906-7.382812-4.269531-1.523438-2.640625-1.519532-5.890625.003906-8.53125l4.921875-8.53125c2.371093-4.046875 7.566406-5.421875 11.628906-3.074219 4.0625 2.34375 5.46875 7.527344 3.152344 11.605469l-4.925781 8.535156c-1.523438 2.640625-4.347657 4.269531-7.398438 4.265625zm0 0" fill="#a5a5a4"/><path d="m366.933594 273.121094c-23.972656.023437-47.523438-6.296875-68.265625-18.3125-6.363281-3.703125-12.421875-7.902344-18.117188-12.5625-2.355469-1.9375-3.496093-4.984375-2.992187-7.992188.503906-3.007812 2.570312-5.519531 5.425781-6.589844 2.859375-1.066406 6.066406-.53125 8.421875 1.40625 38.386719 31.5 92.289062 35.882813 135.261719 10.992188 18.140625-10.519531 33.21875-25.597656 43.730469-43.742188 21.34375-36.960937 21.34375-82.503906 0-119.464843-21.125-36.597657-60.015626-59.3125-102.269532-59.734375h-1.195312c-20.972656-.035156-41.582032 5.480468-59.734375 15.992187-18.140625 10.515625-33.21875 25.597657-43.734375 43.742188-4.574219 7.890625-8.199219 16.292969-10.800782 25.035156-.871093 2.925781-3.230468 5.160156-6.199218 5.871094-2.964844.710937-6.085938-.21875-8.183594-2.433594-2.097656-2.210937-2.855469-5.378906-1.984375-8.300781 2.988281-10.027344 7.15625-19.660156 12.414063-28.707032 24.386718-42.238281 69.449218-68.257812 118.222656-68.2656245h1.28125c75.402344.3515625 136.246094 61.7656245 135.890625 137.1718745-.351563 75.40625-61.765625 136.246094-137.171875 135.894532zm0 0" fill="#2c2f38"/><path d="m298.667969 213.386719c.726562 9.328125-4.3125 18.15625-12.714844 22.273437-4.003906 2.023438-8.402344 3.160156-12.886719 3.328125-7.050781 14.054688-12.515625 28.851563-16.296875 44.117188-.78125 4.632812-3.398437 8.753906-7.253906 11.433593l-40.023437 26.625c-2.847657 1.875-6.539063 1.875-9.386719 0l-40.019531-26.625c-3.859376-2.679687-6.472657-6.800781-7.253907-11.433593-3.78125-15.265625-9.25-30.0625-16.296875-44.117188-6.835937.144531-13.429687-2.503906-18.265625-7.339843-4.832031-4.832032-7.480469-11.429688-7.335937-18.261719 0-25.597657 17.066406-25.597657 17.066406-25.597657v-42.496093c-.03125-6.511719 1.460938-12.941407 4.351562-18.773438 7.425782-14.933593 24.832032-41.132812 55.382813-41.132812 40.019531 0 42.496094 0 56.746094 14.082031l2.984375 2.984375s34.136718 0 34.136718 42.667969v42.667968s17.066407 0 17.066407 25.597657zm0 0" fill="#fdd7ad"/><path d="m204.800781 375.519531c-4.714843 0-8.535156-3.820312-8.535156-8.53125v-8.535156c0-4.710937 3.820313-8.53125 8.535156-8.53125 4.710938 0 8.53125 3.820313 8.53125 8.53125v8.535156c0 4.710938-3.820312 8.53125-8.53125 8.53125zm0 0" fill="#2c2f38"/><path d="m264.535156 324.320312 25.597656 76.800782-34.132812 34.132812v42.667969l-51.199219 25.597656-51.199219-25.597656v-42.667969l-34.136718-34.132812 25.601562-76.800782 59.734375 145.066407zm0 0" fill="#e6e7e8"/><path d="m281.601562 145.121094v20.394531c-6.980468-13.4375-16.828124-25.179687-28.84375-34.390625.765626 10.496094-13.824218 19.714844-63.574218 2.988281-30.378906-10.15625-50.261719 7.59375-61.183594 23.039063v-11.859375c-.03125-6.511719 1.460938-12.941407 4.351562-18.773438 7.425782-14.933593 24.832032-41.132812 55.382813-41.132812 40.019531 0 42.496094 0 56.746094 14.082031l2.984375 2.984375s34.136718 0 34.136718 42.667969zm0 0" fill="#805333"/><path d="m386.644531 136.585938c0 10.886718-8.824219 19.714843-19.710937 19.714843-10.886719 0-19.710938-8.828125-19.710938-19.714843 0-10.886719 8.824219-19.710938 19.710938-19.710938 10.886718 0 19.710937 8.824219 19.710937 19.710938zm0 0" fill="#2c2f38"/></svg>